<svg width="100" height="100" viewBox="0 0 100 100" fill="none" xmlns="http://www.w3.org/2000/svg">
    <path d="M0 0h100v100H0z" fill="none"/>
    <path d="M10 10h5v5h-5zM25 10h5v5h-5zM40 10h5v5h-5zM55 10h5v5h-5zM70 10h5v5h-5zM85 10h5v5h-5z" fill="#2D3FE1"/>
    <path d="M10 25h5v5h-5zM25 25h5v5h-5zM40 25h5v5h-5zM55 25h5v5h-5zM70 25h5v5h-5zM85 25h5v5h-5z" fill="#2D3FE1"/>
    <path d="M10 40h5v5h-5zM25 40h5v5h-5zM40 40h5v5h-5zM55 40h5v5h-5zM70 40h5v5h-5zM85 40h5v5h-5z" fill="#2D3FE1"/>
    <path d="M10 55h5v5h-5zM25 55h5v5h-5zM40 55h5v5h-5zM55 55h5v5h-5zM70 55h5v5h-5zM85 55h5v5h-5z" fill="#2D3FE1"/>
    <path d="M10 70h5v5h-5zM25 70h5v5h-5zM40 70h5v5h-5zM55 70h5v5h-5zM70 70h5v5h-5zM85 70h5v5h-5z" fill="#2D3FE1"/>
    <path d="M10 85h5v5h-5zM25 85h5v5h-5zM40 85h5v5h-5zM55 85h5v5h-5zM70 85h5v5h-5zM85 85h5v5h-5z" fill="#2D3FE1"/>
</svg>