<?xml version="1.0" encoding="iso-8859-1"?>
<!-- Uploaded to: SVG Repo, www.svgrepo.com, Generator: SVG Repo Mixer Tools -->
<!DOCTYPE svg PUBLIC "-//W3C//DTD SVG 1.1//EN" "http://www.w3.org/Graphics/SVG/1.1/DTD/svg11.dtd">
<svg fill="#000000" height="800px" width="800px" version="1.1" id="Capa_1" xmlns="http://www.w3.org/2000/svg" xmlns:xlink="http://www.w3.org/1999/xlink" 
	 viewBox="0 0 420 420" xml:space="preserve">
<g>
	<path d="M113.546,181.273v51.209h13.803v-34.384c0-3.86,3.14-7,7-7h27.003c3.86,0,7,3.14,7,7v34.384h13.804v-51.209l-34.305-31.217
		L113.546,181.273z"/>
	<path d="M391.95,131.907c-15.318-17.142-34.4-28.219-48.615-28.219c-14.762,0-41.992-0.011-56.667-0.017V91.64
		c0-18.301-14.889-33.189-33.189-33.189H33.188C14.888,58.45,0,73.339,0,91.64v194.845c0,18.3,14.888,33.189,33.188,33.189h2.36
		c4.14,23.754,24.893,41.876,49.814,41.876c24.921,0,45.675-18.122,49.815-41.876h118.302c9.017,0,17.202-3.62,23.189-9.476
		c4.938,4.83,11.37,8.132,18.532,9.143c4.002,23.919,24.836,42.209,49.873,42.209c25.286,0,46.296-18.65,50-42.917
		C409.389,314.952,420,301.935,420,286.485v-83.541C420,177.378,410.038,152.15,391.95,131.907z M85.361,341.55
		c-16.861,0-30.579-13.718-30.579-30.581c0-16.861,13.718-30.579,30.579-30.579c16.862,0,30.58,13.718,30.58,30.579
		C115.941,327.832,102.223,341.55,85.361,341.55z M211.566,182.426c-3.385,3.081-7.855,4.779-12.586,4.779
		c-1.653,0-3.27-0.219-4.823-0.62v52.896c0,2.761-2.239,5-5,5h-27.804H134.35h-27.803c-2.761,0-5-2.239-5-5v-52.897
		c-1.554,0.401-3.17,0.621-4.823,0.621c-4.73,0-9.2-1.697-12.586-4.779c-3.516-3.2-5.453-7.492-5.453-12.087
		c0-4.595,1.937-8.887,5.453-12.087l51.128-46.53c3.387-3.081,7.856-4.777,12.587-4.777c4.73,0,9.2,1.696,12.585,4.777l51.129,46.53
		c3.516,3.199,5.453,7.492,5.453,12.087C217.02,174.934,215.082,179.227,211.566,182.426z M345.072,341.55
		c-16.861,0-30.579-13.718-30.579-30.581c0-16.861,13.717-30.579,30.579-30.579c16.862,0,30.581,13.718,30.581,30.579
		C375.653,327.832,361.935,341.55,345.072,341.55z M400,286.485c0,4.683-2.46,8.793-6.148,11.134
		c-5.873-21.43-25.51-37.229-48.779-37.229c-23.792,0-43.787,16.517-49.152,38.683c-5.355-1.678-9.252-6.686-9.252-12.588V123.672
		c9.339,0.004,23.756,0.01,36.812,0.013v61.287c0,18.3,14.888,33.189,33.188,33.189H400V286.485z"/>
</g>
</svg>